<mxfile host="app.diagrams.net" modified="2021-02-17T15:27:26.477Z" agent="5.0 (Windows NT 10.0; Win64; x64) AppleWebKit/537.36 (KHTML, like Gecko) Chrome/88.0.4324.150 Safari/537.36" etag="NY1zcWfXBL4ilReu6VKW" version="14.4.0" type="github">
  <diagram id="mP62DAFLLueKoBZaEgYA" name="Page-1">
    <mxGraphModel dx="1401" dy="794" grid="1" gridSize="10" guides="1" tooltips="1" connect="1" arrows="1" fold="1" page="1" pageScale="1" pageWidth="827" pageHeight="1169" math="0" shadow="0">
      <root>
        <mxCell id="0" />
        <mxCell id="1" parent="0" />
        <mxCell id="fFOIgz3wTSHaTF5qa9g2-13" value="" style="rounded=0;whiteSpace=wrap;html=1;fillColor=#6a00ff;strokeColor=#3700CC;fontColor=#ffffff;opacity=50;" vertex="1" parent="1">
          <mxGeometry x="169" y="440" width="371" height="80" as="geometry" />
        </mxCell>
        <mxCell id="fFOIgz3wTSHaTF5qa9g2-16" value="" style="whiteSpace=wrap;html=1;aspect=fixed;fillColor=#60a917;strokeColor=#2D7600;fontColor=#ffffff;opacity=50;" vertex="1" parent="1">
          <mxGeometry x="170" y="300" width="170" height="170" as="geometry" />
        </mxCell>
        <mxCell id="fFOIgz3wTSHaTF5qa9g2-9" style="edgeStyle=orthogonalEdgeStyle;rounded=0;orthogonalLoop=1;jettySize=auto;html=1;exitX=1;exitY=0.5;exitDx=0;exitDy=0;" edge="1" parent="1" source="fFOIgz3wTSHaTF5qa9g2-1">
          <mxGeometry relative="1" as="geometry">
            <mxPoint x="410" y="470" as="targetPoint" />
          </mxGeometry>
        </mxCell>
        <mxCell id="fFOIgz3wTSHaTF5qa9g2-1" value="База данных&lt;br&gt;???" style="rounded=1;whiteSpace=wrap;html=1;" vertex="1" parent="1">
          <mxGeometry x="170" y="440" width="120" height="60" as="geometry" />
        </mxCell>
        <mxCell id="fFOIgz3wTSHaTF5qa9g2-2" value="Визуализатор&amp;nbsp;&lt;br&gt;pygame" style="rounded=1;whiteSpace=wrap;html=1;" vertex="1" parent="1">
          <mxGeometry x="414" y="440" width="120" height="60" as="geometry" />
        </mxCell>
        <mxCell id="fFOIgz3wTSHaTF5qa9g2-7" style="edgeStyle=orthogonalEdgeStyle;rounded=0;orthogonalLoop=1;jettySize=auto;html=1;exitX=0.8;exitY=0.8;exitDx=0;exitDy=0;exitPerimeter=0;entryX=0.667;entryY=-0.033;entryDx=0;entryDy=0;entryPerimeter=0;" edge="1" parent="1" source="fFOIgz3wTSHaTF5qa9g2-5" target="fFOIgz3wTSHaTF5qa9g2-6">
          <mxGeometry relative="1" as="geometry" />
        </mxCell>
        <mxCell id="fFOIgz3wTSHaTF5qa9g2-5" value="osm.org" style="ellipse;shape=cloud;whiteSpace=wrap;html=1;" vertex="1" parent="1">
          <mxGeometry x="20" y="170" width="120" height="80" as="geometry" />
        </mxCell>
        <mxCell id="fFOIgz3wTSHaTF5qa9g2-8" style="edgeStyle=orthogonalEdgeStyle;rounded=0;orthogonalLoop=1;jettySize=auto;html=1;exitX=0.5;exitY=1;exitDx=0;exitDy=0;entryX=0.5;entryY=0;entryDx=0;entryDy=0;" edge="1" parent="1" source="fFOIgz3wTSHaTF5qa9g2-6" target="fFOIgz3wTSHaTF5qa9g2-1">
          <mxGeometry relative="1" as="geometry" />
        </mxCell>
        <mxCell id="fFOIgz3wTSHaTF5qa9g2-6" value="Конвертер&lt;br&gt;xml-&amp;gt;???" style="rounded=1;whiteSpace=wrap;html=1;" vertex="1" parent="1">
          <mxGeometry x="170" y="290" width="120" height="60" as="geometry" />
        </mxCell>
        <mxCell id="fFOIgz3wTSHaTF5qa9g2-18" value="load(filename)&lt;br&gt;parse()&lt;br&gt;save(db)" style="rounded=0;whiteSpace=wrap;html=1;" vertex="1" parent="1">
          <mxGeometry x="420" y="310" width="200" height="70" as="geometry" />
        </mxCell>
        <mxCell id="fFOIgz3wTSHaTF5qa9g2-21" value="" style="shape=flexArrow;endArrow=classic;html=1;entryX=0.4;entryY=1;entryDx=0;entryDy=0;entryPerimeter=0;" edge="1" parent="1" source="fFOIgz3wTSHaTF5qa9g2-16" target="fFOIgz3wTSHaTF5qa9g2-18">
          <mxGeometry width="50" height="50" relative="1" as="geometry">
            <mxPoint x="330" y="380" as="sourcePoint" />
            <mxPoint x="380" y="330" as="targetPoint" />
            <Array as="points">
              <mxPoint x="470" y="380" />
            </Array>
          </mxGeometry>
        </mxCell>
        <mxCell id="fFOIgz3wTSHaTF5qa9g2-22" value="" style="shape=flexArrow;endArrow=classic;html=1;width=11;endSize=7.21;entryX=0.5;entryY=0;entryDx=0;entryDy=0;" edge="1" parent="1" source="fFOIgz3wTSHaTF5qa9g2-1" target="fFOIgz3wTSHaTF5qa9g2-23">
          <mxGeometry width="50" height="50" relative="1" as="geometry">
            <mxPoint x="215" y="550" as="sourcePoint" />
            <mxPoint x="195" y="630" as="targetPoint" />
            <Array as="points">
              <mxPoint x="195" y="530" />
            </Array>
          </mxGeometry>
        </mxCell>
        <mxCell id="fFOIgz3wTSHaTF5qa9g2-23" value="save()&lt;br&gt;load()&lt;br&gt;clear()" style="rounded=0;whiteSpace=wrap;html=1;opacity=50;fillColor=#a20025;strokeColor=#6F0000;fontColor=#ffffff;" vertex="1" parent="1">
          <mxGeometry x="90" y="620" width="120" height="70" as="geometry" />
        </mxCell>
        <mxCell id="fFOIgz3wTSHaTF5qa9g2-25" value="load(db)&lt;br&gt;run()" style="rounded=0;whiteSpace=wrap;html=1;opacity=50;" vertex="1" parent="1">
          <mxGeometry x="650" y="470" width="120" height="60" as="geometry" />
        </mxCell>
        <mxCell id="fFOIgz3wTSHaTF5qa9g2-26" value="" style="shape=flexArrow;endArrow=classic;html=1;entryX=0;entryY=0.25;entryDx=0;entryDy=0;exitX=1;exitY=0.75;exitDx=0;exitDy=0;" edge="1" parent="1" source="fFOIgz3wTSHaTF5qa9g2-2" target="fFOIgz3wTSHaTF5qa9g2-25">
          <mxGeometry width="50" height="50" relative="1" as="geometry">
            <mxPoint x="550" y="510" as="sourcePoint" />
            <mxPoint x="600" y="460" as="targetPoint" />
          </mxGeometry>
        </mxCell>
      </root>
    </mxGraphModel>
  </diagram>
</mxfile>
